<svg width="56" height="39" viewBox="0 0 56 39" fill="none" xmlns="http://www.w3.org/2000/svg">
<path d="M11.0625 36.875C10.0484 36.875 9.12656 36.6906 8.20469 36.4141C4.425 35.1234 1.84375 31.6203 1.84375 27.6562C1.84375 24.9828 2.95 22.4937 4.97813 20.7422C5.53125 20.2812 6.08438 19.9125 6.72969 19.5438L7.375 17.4234C8.94219 12.0766 13.8281 8.38906 19.3594 8.38906C19.9125 8.38906 20.4656 8.38906 21.1109 8.57344C21.6641 8.66562 22.125 8.75781 22.5859 8.85L22.8625 8.38906C25.075 4.33281 29.3156 1.84375 33.925 1.84375C40.9312 1.84375 46.5547 7.55938 46.5547 14.4734C46.5547 14.8422 46.5547 15.1187 46.4625 15.4875V15.7641C47.0156 15.9484 47.5687 16.225 48.0297 16.5016C51.4406 18.4375 53.4688 22.0328 53.4688 25.9969C53.4688 31.0672 49.9656 35.4922 44.9875 36.5984C44.1578 36.7828 43.3281 36.875 42.5906 36.875H11.0625Z" fill="white"/>
<path d="M33.8328 3.6875C39.825 3.6875 44.6188 8.57344 44.6188 14.4734V15.3031C42.1297 15.4875 39.825 16.5016 38.0734 18.0688C39.3641 17.3313 40.9313 16.8703 42.5906 16.8703C43.2359 16.8703 43.7891 16.9625 44.3422 17.0547C45.3562 17.2391 46.2781 17.6078 47.1078 18.0688C49.7812 19.6359 51.625 22.5859 51.625 25.9047C51.625 30.2375 48.5828 33.8328 44.6188 34.7547C43.9734 34.9391 43.3281 35.0312 42.5906 35.0312H11.0625C10.2328 35.0312 9.49531 34.9391 8.75781 34.6625C5.80781 33.6484 3.6875 30.8828 3.6875 27.6562C3.6875 25.4438 4.70156 23.4156 6.17656 22.125C6.91406 21.4797 7.65156 21.0187 8.57344 20.7422C9.31094 20.4656 10.1406 20.2812 10.9703 20.2812C13.3672 20.2812 15.4875 21.3875 16.7781 23.1391H16.8703C15.3031 20.2812 12.3531 18.2531 8.94219 17.8844C10.2328 13.4594 14.2891 10.1406 19.175 10.1406C19.7281 10.1406 20.1891 10.2328 20.65 10.2328C21.6641 10.4172 22.5859 10.6016 23.4156 11.0625C26.6422 12.5375 29.0391 15.5797 29.5922 19.2672V19.175C29.5922 15.0266 27.4719 11.3391 24.2453 9.21875C26.2734 5.9 29.7766 3.6875 33.8328 3.6875ZM33.8328 0C28.8547 0 24.2453 2.58125 21.5719 6.72969C21.4797 6.72969 21.3875 6.72969 21.2953 6.6375C20.5578 6.54531 19.9125 6.45312 19.2672 6.45312C12.9062 6.45312 7.28281 10.6937 5.53125 16.8703L5.07031 18.3453C4.60938 18.6219 4.14844 18.9906 3.77969 19.3594C1.38281 21.3875 0 24.4297 0 27.6562C0 32.45 3.04219 36.6906 7.55937 38.1656C8.66562 38.5344 9.86406 38.7188 11.0625 38.7188H42.5906C43.5125 38.7188 44.5266 38.6266 45.4484 38.35C51.2562 36.9672 55.3125 31.8969 55.3125 25.9047C55.3125 21.3875 52.8234 17.1469 48.9516 14.8422L48.3984 14.5656V14.4734C48.3063 6.54531 41.8531 0 33.8328 0Z" fill="#279EFF"/>
</svg>
