<svg width="60" height="56" viewBox="0 0 60 56" fill="none" xmlns="http://www.w3.org/2000/svg">
<path fill-rule="evenodd" clip-rule="evenodd" d="M4.28571 0C3.14907 0 2.05898 0.451529 1.25526 1.25526C0.451529 2.05898 0 3.14907 0 4.28571V21.4286C0 20.2919 0.451529 19.2018 1.25526 18.3981C2.05898 17.5944 3.14907 17.1428 4.28571 17.1428V16.0714C4.28571 14.9348 4.73724 13.8447 5.54097 13.041C6.3447 12.2372 7.43479 11.7857 8.57143 11.7857H51.4286C52.5652 11.7857 53.6553 12.2372 54.459 13.041C55.2628 13.8447 55.7143 14.9348 55.7143 16.0714V17.1428C56.8509 17.1428 57.941 17.5944 58.7448 18.3981C59.5485 19.2018 60 20.2919 60 21.4286V10.9928C60 9.85621 59.5485 8.76612 58.7448 7.96239C57.941 7.15867 56.8509 6.70714 55.7143 6.70714H24.9846C24.6418 6.70714 24.3129 6.56357 24.0814 6.31071L23.7171 5.91214L23.3143 5.47178L22.9104 5.03142L19.5825 1.39286C19.181 0.953986 18.6925 0.603499 18.1482 0.3637C17.6038 0.123901 17.0155 4.02875e-05 16.4207 0H4.28571Z" fill="#024BB5"/>
<path d="M0 21.4285C0 20.2919 0.451529 19.2018 1.25526 18.3981C2.05898 17.5944 3.14907 17.1428 4.28571 17.1428H55.7143C56.8509 17.1428 57.941 17.5944 58.7448 18.3981C59.5485 19.2018 60 20.2919 60 21.4285V51.4285C60 52.5651 59.5485 53.6552 58.7448 54.459C57.941 55.2627 56.8509 55.7142 55.7143 55.7142H4.28571C3.14907 55.7142 2.05898 55.2627 1.25526 54.459C0.451529 53.6552 0 52.5651 0 51.4285V21.4285Z" fill="#279EFF"/>
<path fill-rule="evenodd" clip-rule="evenodd" d="M8.57157 11.7854C7.43493 11.7854 6.34484 12.2369 5.54112 13.0407C4.73739 13.8444 4.28586 14.9345 4.28586 16.0711V17.1425H55.7144V16.0711C55.7144 14.9345 55.2629 13.8444 54.4592 13.0407C53.6554 12.2369 52.5654 11.7854 51.4287 11.7854H8.57157Z" fill="#F2F2F2"/>
</svg>
