<svg width="45" height="57" viewBox="0 0 45 57" fill="none" xmlns="http://www.w3.org/2000/svg">
<path d="M42.4514 11.2209C43.0964 11.7904 43.4658 12.6094 43.4658 13.4698V52.7442C43.4658 54.9533 41.6749 56.7442 39.4658 56.7442H4C1.79086 56.7442 0 54.9533 0 52.7442V5.03418C0 2.82504 1.79086 1.03418 4 1.03418H30.914L42.4514 11.2209Z" fill="#F04438"/>
<g filter="url(#filter0_d_312_1129)">
<path d="M43.4661 12.0824H31.9143C31.362 12.0824 30.9143 11.6347 30.9143 11.0824V1L43.4661 12.0824Z" fill="#FECDCA"/>
</g>
<path d="M16.1053 37.4886C16.1053 38.1393 15.956 38.7366 15.6573 39.2806C15.3587 39.8139 14.9 40.2459 14.2813 40.5766C13.6627 40.9073 12.8947 41.0726 11.9773 41.0726H10.2813V45.1046H7.54534V33.8726H11.9773C12.8733 33.8726 13.6307 34.0273 14.2493 34.3366C14.868 34.6459 15.332 35.0726 15.6413 35.6166C15.9507 36.1606 16.1053 36.7846 16.1053 37.4886ZM11.7693 38.8966C12.292 38.8966 12.6813 38.7739 12.9373 38.5286C13.1933 38.2833 13.3213 37.9366 13.3213 37.4886C13.3213 37.0406 13.1933 36.6939 12.9373 36.4486C12.6813 36.2033 12.292 36.0806 11.7693 36.0806H10.2813V38.8966H11.7693ZM21.7377 33.8726C22.9217 33.8726 23.9564 34.1073 24.8417 34.5766C25.7271 35.0459 26.4097 35.7073 26.8897 36.5606C27.3804 37.4033 27.6257 38.3793 27.6257 39.4886C27.6257 40.5873 27.3804 41.5633 26.8897 42.4166C26.4097 43.2699 25.7217 43.9313 24.8257 44.4006C23.9404 44.8699 22.9111 45.1046 21.7377 45.1046H17.5297V33.8726H21.7377ZM21.5617 42.7366C22.5964 42.7366 23.4017 42.4539 23.9777 41.8886C24.5537 41.3233 24.8417 40.5233 24.8417 39.4886C24.8417 38.4539 24.5537 37.6486 23.9777 37.0726C23.4017 36.4966 22.5964 36.2086 21.5617 36.2086H20.2657V42.7366H21.5617ZM36.4667 33.8726V36.0646H31.8907V38.4326H35.3147V40.5606H31.8907V45.1046H29.1547V33.8726H36.4667Z" fill="white"/>
<defs>
<filter id="filter0_d_312_1129" x="27.9143" y="0" width="16.5518" height="15.0824" filterUnits="userSpaceOnUse" color-interpolation-filters="sRGB">
<feFlood flood-opacity="0" result="BackgroundImageFix"/>
<feColorMatrix in="SourceAlpha" type="matrix" values="0 0 0 0 0 0 0 0 0 0 0 0 0 0 0 0 0 0 127 0" result="hardAlpha"/>
<feOffset dx="-1" dy="1"/>
<feGaussianBlur stdDeviation="1"/>
<feComposite in2="hardAlpha" operator="out"/>
<feColorMatrix type="matrix" values="0 0 0 0 0 0 0 0 0 0 0 0 0 0 0 0 0 0 0.2 0"/>
<feBlend mode="normal" in2="BackgroundImageFix" result="effect1_dropShadow_312_1129"/>
<feBlend mode="normal" in="SourceGraphic" in2="effect1_dropShadow_312_1129" result="shape"/>
</filter>
</defs>
</svg>
